<?xml version='1.0' encoding='utf-8'?>
<svg xmlns="http://www.w3.org/2000/svg" width="520.36774mm" height="511.58087mm" viewBox="0 0 520.36774 511.58087" version="1.1" id="svg5" xml:space="preserve"><defs id="defs2" /><g id="layer1"><path style="fill:#000000;stroke-width:1" d="m 247.20100000000093 511.28659999999945 c -23.562,-1.2204 -45.347,-5.4457 -69.295,-13.4435 -14.403,-4.809 -22.425,-8.1121 -35.877,-14.7698 -11.869,-5.8747 -18.599,-9.7475 -29.001,-16.6922 -38.073,-25.4159 -70.504,-63.197 -89.428,-104.1767 -15.996,-34.6355 -23.609,-69.3503 -23.6,-107.6051 0.01,-51.7359 16.174,-102.1191 46.31,-144.3707 29.452,-41.2918 68.334,-72.021 114.494,-90.4838 37.205,-14.8812 77.722,-21.727 113.919,-19.2472 38.368,2.6288 70.898,11.3232 102.96,27.5153 73.109,36.9229 122.951,100.4403 138.063,175.9427 3.807,19.0271 4.922,32.8342 4.556,56.4961 -0.315,20.3979 -1.543,31.9956 -5.101,48.1835 -9.094,41.3698 -25.978,76.1752 -52.927,109.1041 -6.281,7.6774 -21.596,23.1939 -29.793,30.1915 -35.039,29.9045 -76.36,49.89 -121.39,58.7098 -20.195,3.9564 -43.899,5.6797 -63.89,4.646 z m 39.317,-9.2502 c 14.735,-1.6982 35.731,-5.7466 48.408,-9.3325 8.133,-2.3 10.369,-3.0815 9.969,-3.4828 -0.125,-0.1253 -3.64,0.418 -7.804,1.2148 -18.719,3.5803 -40.137,5.3705 -74.9,6.2621 -10.23,0.2619 -13.49,0.475 -11.549,0.755 4.52,0.6534 10.508,1.3681 11.549,1.3806 0.814,0 0.856,0.097 0.246,0.4876 -0.405,0.2619 -3.392,0.4806 -6.635,0.4848 -10.4,0.014 -26.089,0.6561 -24.773,1.0114 0.701,0.1894 5.456,0.7049 10.567,1.1479 5.11,0.4416 10.175,0.8916 11.257,0.9989 4.31,0.429 27.427,-0.209 33.665,-0.9278 z m -82.842,-7.1815 c -2.017,-2.1231 -6.918,-4.9428 -13.054,-7.5103 -5.295,-2.2164 -8.562,-4.0177 -9.637,-5.3133 -0.439,-0.528 -0.46,-1.1939 -0.08,-2.5703 0.282,-1.0211 0.387,-1.981 0.234,-2.1342 -0.707,-0.7077 -4.708,4.7407 -4.708,6.4111 0,0.3886 0.94,1.042 2.089,1.4516 12.119,4.3298 18.132,6.7398 21.807,8.7431 2.4,1.3082 4.46,2.392 4.577,2.4087 0.126,0.014 -0.434,-0.652 -1.228,-1.4864 z m 156.355,-8.5969 c 5.52,-2.8587 10.035,-5.2646 10.035,-5.3468 0,-0.1978 -17.114,6.7497 -18.676,7.5813 -0.676,0.3609 -1.39,0.8986 -1.59,1.1967 -0.433,0.6492 -0.49,1.7693 -0.08,1.7693 0.157,0 4.802,-2.3405 10.32,-5.2005 z m -135.076,0.8108 c 6.066,-1.5492 14.983,-2.8726 30.11,-4.4663 18.01,-1.8988 21.139,-2.2819 28.174,-3.4494 3.197,-0.5307 5.907,-0.964 6.021,-0.964 0.821,0 -0.235,-1.017 -2.712,-2.6135 l -2.912,-1.8751 -5.316,1.2831 c -6.329,1.5282 -21.231,4.7226 -27.433,5.8817 -22.828,4.2615 -31.316,6.4111 -34.156,8.6484 -1.037,0.8164 -0.79,0.7773 1.574,-0.248 1.542,-0.6687 4.534,-1.6578 6.65,-2.1969 z m 135.528,-4.6586 c 27.973,-11.3343 46.141,-22.2953 67.329,-40.623 8.627,-7.4615 16.525,-16.1448 25.899,-28.471 5.627,-7.3988 5.362,-6.9126 8.052,-14.8074 6.63,-19.4631 8.201,-33.2312 4.6,-40.2915 -1.096,-2.1495 -0.957,-2.0715 -2.598,-1.4474 -3.561,1.3541 -9.302,2.0646 -16.614,2.059 -8.931,0 -16.939,-0.9431 -28.374,-3.3128 -12.84,-2.6622 -20.711,-4.1236 -22.202,-4.1236 -1.196,0 -1.79,0.638 -4.66,5.018 -12.285,18.7526 -24.421,28.9293 -49.433,41.4561 -8.716,4.3646 -19.059,8.8393 -26.055,11.2703 -2.8,0.9724 -5.333,2.0339 -5.63,2.3599 -0.296,0.3246 -1.596,3.6862 -2.887,7.4712 -6.065,17.7594 -12.353,32.2143 -19.868,45.6689 -1.649,2.9534 -2.999,5.6268 -2.999,5.943 0,0.3163 2.378,1.701 5.284,3.0788 18.848,8.934 34.892,12.4015 56.395,12.1897 l 5.405,-0.056 z m -32.928,-0.5753 c -9.864,-1.3625 -14.271,-2.4324 -20.394,-4.9497 -4.959,-2.0396 -10.322,-5.3886 -10.322,-6.446 0,-1.244 2.614,-6.0112 3.297,-6.0112 0.823,0 0.8,0.6171 -0.1,2.7792 -1.278,3.0565 -1.065,3.4703 2.334,4.5123 9.663,2.9673 24.448,3.4744 37.474,1.2872 12.833,-2.1551 26.363,-7.5074 41.126,-16.2715 5.54,-3.2877 10.598,-6.5225 24.483,-15.6502 15.351,-10.0916 21.048,-13.7736 28.505,-18.4252 4.189,-2.6135 8.889,-5.5711 10.444,-6.5713 1.553,-1.0003 2.825,-1.7233 2.825,-1.6063 0,0.1254 -4.367,3.48 -9.706,7.4713 -5.338,3.9912 -17.447,13.1593 -26.907,20.3714 -26.036,19.8504 -32.787,24.4505 -44.832,30.5481 -8.292,4.196 -13.963,6.1979 -21.903,7.7304 -5.227,1.0086 -13.446,1.6285 -16.321,1.2315 z m -26.628,-29.2024 c 0.152,-0.4054 2.167,-5.3816 4.476,-11.0571 2.846,-6.9934 4.77,-12.6188 5.967,-17.4473 1.902,-7.6732 2.477,-8.7055 5.816,-10.4163 2.224,-1.1409 5.779,-2.4463 6.016,-2.2094 0.08,0.084 -1.281,1.1172 -3.044,2.2847 -1.762,1.1674 -3.607,2.6329 -4.099,3.2571 -0.49,0.6241 -1.273,3.0815 -1.738,5.4609 -1.066,5.4401 -3.266,11.0446 -8.245,21.0137 -3.381,6.7691 -6.033,11.4639 -5.149,9.1137 z m -129.913,28.7273 c 0.726,-1.8793 1.8,-4.3479 2.387,-5.486 0.585,-1.1382 1.064,-2.2806 1.064,-2.5397 0,-0.2591 -1.824,-1.0727 -4.054,-1.8068 -12.021,-3.962 -25.597,-11.7217 -36.491,-20.8563 -8.544,-7.1647 -11.468,-10.1808 -24.304,-25.069 -2.258,-2.6176 -2.462,-2.7305 -6.46,-3.6109 -2.271,-0.5001 -10.312,-2.4254 -17.869,-4.2796 -7.558,-1.8543 -13.805,-3.3087 -13.881,-3.2307 -0.23,0.2299 4.686,7.2136 7.137,10.1391 12.333,14.7182 27.48,27.5362 44.959,38.0444 11.754,7.0658 43.971,22.7216 45.751,22.2326 0.241,-0.07 1.034,-1.6578 1.761,-3.5371 z m 79.963,-4.8327 c 3.294,-0.4402 9.586,-1.4613 13.984,-2.268 7.247,-1.329 8.104,-1.5937 9.136,-2.8238 11.169,-13.307 20.524,-31.2446 27.466,-52.6637 1.185,-3.6611 2.156,-6.8931 2.156,-7.1829 0,-0.2897 -1.935,-1.1493 -4.3,-1.9099 -21.45,-6.8945 -43.006,-18.8697 -61.059,-33.9208 -5.506,-4.5903 -18.524,-16.8385 -21.491,-20.2224 l -2.352,-2.6803 -4.422,1.2816 c -10.43,3.0245 -26.031,6.0392 -36.612,7.0756 -9.894,0.9668 -24.856,1.1674 -34.403,0.4597 -5,-0.3705 -10.399,-0.6784 -11.999,-0.6854 h -2.909 l -2.641,7.8641 c -3.215,9.5749 -6.244,20.5916 -7.297,26.5388 -0.896,5.0639 -1.506,19.8378 -0.991,23.9712 0.318,2.541 0.567,2.984 2.895,5.1308 1.4,1.2928 6.307,6.0141 10.901,10.4915 9.855,9.6041 12.392,11.7913 19.909,17.1729 7.922,5.6713 15.528,10.0652 27.705,16.0026 9.918,4.8355 10.82,5.1768 16.095,6.0726 5.21,0.886 19.488,2.7305 24.509,3.1665 5.636,0.489 30.02,-0.097 35.72,-0.8595 z m -111.16,-35.2749 c -16.192,-12.6898 -18.47,-14.8714 -20.165,-19.3085 -0.733,-1.9211 -0.74,-2.47 -0.08,-5.9917 0.403,-2.1315 1.084,-4.6475 1.516,-5.5906 0.779,-1.7052 0.781,-1.6954 0.425,1.7261 -0.846,8.1162 -0.14,10.1725 5.269,15.2852 3.305,3.1275 19.209,17.914 20.381,18.949 0.294,0.2619 0.294,0.3971 0,0.3678 -0.258,-0.028 -3.564,-2.4714 -7.349,-5.4373 z m -63.889,-29.2595 c -0.811,-0.436 -2.137,-1.2942 -2.948,-1.9071 -0.811,-0.6144 -2.139,-1.2817 -2.949,-1.4837 -5.949,-1.485 -18.499,-22.4653 -31.599,-52.8253 -9.091,-21.0694 -15.827,-42.0454 -15.827,-49.2896 0,-2.3919 -0.759,-2.9924 -1.957,-1.5491 -0.962,1.1604 0.425,12.9071 2.495,21.1418 6.482,25.7767 20.665,54.1125 38.978,77.8748 2.594,3.3671 4.715,6.2899 4.715,6.4975 0,0.2075 0.719,0.3622 1.598,0.3441 0.878,-0.014 2.924,0.4095 4.546,0.9487 3.608,1.2008 4.927,1.3123 2.948,0.2479 z m 236.605,-6.3553 c 1.775,-0.4402 6.102,-2.0716 9.616,-3.6277 7.536,-3.3365 20.009,-9.3923 19.791,-9.611 -0.222,-0.2229 -16.862,5.6532 -23.723,8.3795 -6.819,2.7082 -12.736,4.6446 -14.498,4.7449 -0.819,0.042 -0.574,0.1867 0.737,0.4208 3.259,0.5837 4.702,0.5293 8.077,-0.3065 z m -151.149,-49.0806 c 15.423,-1.173 26.89,-3.1735 40.922,-7.1397 10.92,-3.0858 9.88,-2.2875 13.403,-10.3007 7.647,-17.3957 13.943,-34.3541 24.55,-66.1281 l 7.224,-21.6405 -4.129,-7.8474 c -6.44,-12.2441 -13.185,-23.3402 -23.586,-38.8079 -10.932,-16.2589 -13.714,-20.7225 -18.073,-28.9989 l -3.107,-5.8984 -10.71,0.5739 c -27.313,1.4642 -54.667,6.5922 -71.917,13.4811 -7.833,3.129 -11.626,5.5181 -14.102,8.8825 -11.84,16.0848 -22.228,45.2746 -27.363,76.8913 l -1.288,7.9226 1.672,4.3632 c 9.229,24.0938 27.497,52.3266 46.926,72.5266 l 2.692,2.7988 13.557,0.028 c 7.803,0.014 17.706,-0.2842 23.329,-0.7119 z m -44.874,-4.1348 c -0.836,-1.0546 -3.538,-4.3172 -6.005,-7.2483 -17.43,-20.7128 -20.501,-24.6734 -27.571,-35.555 -3.692,-5.6839 -12.54,-20.6793 -15.598,-26.4384 -1.23,-2.314 -1.84,-3.0161 -2.422,-2.7862 -0.429,0.1686 -3.877,1.4168 -7.661,2.7737 -15.423,5.5292 -25.697,10.1432 -30.98,13.9129 -4.04,2.8824 -4.328,3.2739 -3.604,4.8648 0.755,1.6578 1.108,1.6202 3.423,-0.3622 2.98,-2.5508 12.043,-7.0227 18.584,-9.1709 5.168,-1.6968 20.568,-5.2464 20.909,-4.8187 0.07,0.084 2.406,3.9146 5.195,8.5091 13.49,22.2201 25.218,38.213 35.207,48.0107 3.293,3.2306 11.376,10.1808 11.879,10.2157 0.1,0 -0.52,-0.8512 -1.356,-1.9072 z m 342.588,1.2496 c 3.841,-0.7439 5.113,-1.4878 7.425,-4.3465 4.223,-5.2144 17.147,-29.481 23.381,-43.8996 7.042,-16.2869 10.543,-30.8978 9.7,-40.4838 -1.599,-18.1759 -9.005,-46.6719 -15.819,-60.8649 -2.128,-4.4329 -3.335,-6.2453 -6.087,-9.143 -10.889,-11.4639 -31.202,-20.2182 -53.72,-23.1507 -7.322,-0.9543 -24.07,-1.049 -24.793,-0.1421 -0.268,0.3385 -1.758,4.2643 -3.31,8.7237 -4.17,11.9821 -8.457,22.9514 -15.844,40.545 -7.994,19.041 -11.231,28.3665 -11.893,34.2566 l -0.481,4.2768 3.587,5.3064 c 13.307,19.6874 21.811,43.83 25.149,71.408 0.442,3.6485 0.946,6.7872 1.121,6.9739 0.434,0.4625 8.427,3.5259 15.242,5.8427 8.059,2.7388 15.62,4.2127 25.868,5.043 5.342,0.4319 17.517,0.2271 20.474,-0.3455 z m -12.61,-2.2067 c -1.788,-0.312 -1.609,-0.3761 1.965,-0.7063 10.181,-0.9389 13.93,-3.3337 19.404,-12.3903 2.484,-4.111 10.975,-21.6545 19.672,-40.6481 2.811,-6.1394 5.172,-11.1017 5.245,-11.0293 0.07,0.07 -1.201,3.3268 -2.832,7.2303 -1.632,3.9035 -4.259,10.3034 -5.84,14.2222 -1.582,3.9202 -4.904,11.7718 -7.384,17.4473 -10.104,23.1228 -12.444,25.7377 -23.33,26.0679 -2.714,0.084 -5.819,0 -6.9,-0.1937 z m -408.156,-19.4561 c 0,-0.3901 -0.206,-0.8359 -0.459,-0.9905 -0.583,-0.3608 -1.171,0.5586 -0.77,1.2078 0.451,0.73 1.229,0.5935 1.229,-0.2173 z m -2.458,-12.5617 c 0.03,-4.8968 1.595,-11.0292 3.56,-13.8837 1.704,-2.4728 -1.676,-1.1535 -4.458,1.7414 -2.72,2.8308 -2.878,5.8817 -0.719,13.7723 0.963,3.5162 1.596,2.8767 1.617,-1.63 z m -9.091,-25.3824 c 5.56,-3.7433 27.677,-15.2602 37.104,-19.3225 2.028,-0.8734 3.938,-1.9071 4.248,-2.2972 0.307,-0.3915 0.82,-2.5257 1.139,-4.7435 1.023,-7.1244 3.958,-19.4673 6.502,-27.3398 4.586,-14.193 9.169,-24.9938 18.502,-43.6029 6.154,-12.2747 6.011,-11.5419 3.541,-18.1174 -6.024,-16.0361 -8.065,-27.5961 -9.654,-54.6963 l -0.326,-5.5529 -1.533,0.3163 c -5.032,1.0406 -16.314,6.4835 -25.736,12.4153 -6.876,4.3298 -18.194,12.793 -20.271,15.1585 -0.899,1.0225 -3.169,4.189 -5.049,7.0366 -17.561,26.6167 -27.766,72.7969 -24.925,112.8056 0.696,9.8158 1.575,13.9729 5.27,24.9227 l 3.268,9.6877 2.485,-2.3432 c 1.367,-1.2887 3.812,-3.2348 5.435,-4.327 z m -3.41,-8.0996 c -3.094,-2.4351 -4.319,-10.8453 -4.355,-29.9156 -0.04,-22.1379 2.354,-39.4821 10.008,-72.4904 3.632,-15.6641 4.768,-20.111 4.837,-18.9212 0.03,0.4054 -0.28,2.6176 -0.676,4.9149 -1.152,6.7064 -3.105,22.3928 -4.405,35.3849 -3.022,30.2207 -2.852,53.7587 0.468,64.7907 1.014,3.37 3.31,5.8943 5.887,6.4738 3.461,0.7788 11.513,-0.801 17.835,-3.4995 3.966,-1.694 1.675,-0.2563 -7.856,4.9275 -15.793,8.5899 -19.576,10.0401 -21.743,8.3349 z m 10.575,-123.0881 c 0.03,-0.5726 0.139,-0.6882 0.296,-0.2968 0.143,0.3553 0.126,0.7788 -0.04,0.9418 -0.163,0.163 -0.28,-0.1254 -0.258,-0.645 z m 210.053,125.4578 c 1.432,-3.0258 4.069,-9.2238 5.861,-13.7737 3.7,-9.3951 4.871,-11.8832 6.363,-13.5215 2.59,-2.8433 8.19,-4.2573 14.76,-3.7238 4.324,0.3511 5.731,-0.1741 3.629,-1.3527 -1.531,-0.8581 -12.737,-0.8442 -17.95,0.028 l -4.052,0.6743 -3.667,11.3663 c -7.281,22.5684 -8.44,26.1264 -8.835,27.0932 -1.204,2.9464 1.599,-1.9406 3.891,-6.7858 z m 269.869,-23.7887 c 0.913,-4.8717 -0.559,-30.7501 -2.497,-43.8857 -4.215,-28.5699 -15.061,-59.6962 -29.017,-83.2885 -6.961,-11.7648 -13.024,-18.3026 -15.256,-16.4498 -1.605,1.3318 -0.854,4.6377 3.664,16.1294 7.357,18.7109 10.023,30.0828 10.62,45.2914 0.257,6.5769 0.262,6.5964 2.155,9.8005 8.388,14.1874 14.825,32.9972 19.769,57.7625 1.08,5.4066 2.307,11.202 2.727,12.8779 l 0.765,3.0495 2.77,0.1755 c 1.526,0.098 3.039,0.2174 3.365,0.2689 0.326,0.056 0.747,-0.7286 0.935,-1.7316 z m -225.018,-8.1985 c -1.212,-0.9194 -5.876,-1.4195 -6.335,-0.6784 -0.664,1.0769 0.112,1.3638 3.661,1.3471 3.046,0 3.415,-0.1114 2.674,-0.6687 z m 66.171,-6.705 c 4.192,-0.606 6.949,-1.7929 9.057,-3.9007 2.878,-2.8782 7.107,-12.2552 14.187,-31.4564 1.742,-4.724 4.784,-12.3541 6.76,-16.9542 4.411,-10.27 6.863,-17.5462 8.233,-24.4295 l 1.046,-5.2534 -3.986,-8.1358 c -2.191,-4.4747 -5.353,-10.5152 -7.027,-13.4226 -11.959,-20.7852 -28.025,-39.1937 -43.056,-49.3369 l -3.65,-2.4631 -13.017,-1.4279 c -34.207,-3.753 -53.263,-4.7742 -59.906,-3.2111 -7.178,1.6912 -16.626,7.4322 -21.056,12.7957 -14.256,17.2606 -29.844,40.1619 -38.099,55.9751 l -2.015,3.8575 3.011,5.4791 c 8.58,15.6168 22.957,40.0004 31.774,53.8897 6.085,9.586 15.281,23.2315 17.18,25.4911 l 1.343,1.5993 14.253,0.084 c 8.704,0.056 17.791,-0.1895 23.344,-0.6214 12.401,-0.964 28.199,-0.886 38.825,0.1923 4.729,0.4792 10.258,1.0406 12.285,1.2454 5.379,0.5447 6.756,0.5447 10.514,0 z m -8.789,-6.439 c -5.995,-0.7077 -5.742,-1.4056 0.513,-1.4084 9.912,0 10.878,-0.723 16.469,-12.1994 6.389,-13.119 13.981,-26.8453 10.512,-19.0062 -0.717,1.6215 -3.149,7.5228 -5.405,13.1119 -4.509,11.1783 -5.646,13.626 -7.433,16.011 -2.451,3.2682 -7.121,4.3813 -14.656,3.4911 z m -225.543,-102.4603 c 2.226,-1.8236 2.689,-2.6442 1.493,-2.6442 -0.373,0 -1.493,0.9961 -2.49,2.2123 -2.192,2.6748 -1.896,2.8029 0.997,0.4319 z m 320.097,-10.1154 c -12.133,-15.6168 -23.926,-28.2871 -33.384,-35.8712 -6.151,-4.9302 -15.678,-11.3218 -22.103,-14.8268 -6.854,-3.7391 -7.767,-4.4538 -7.088,-5.5516 1.596,-2.5814 7.043,-4.1166 11.349,-3.1986 1.299,0.2773 2.451,0.4138 2.56,0.3051 0.111,-0.1114 -1.215,-0.8679 -2.943,-1.6856 -3.512,-1.662 -6.081,-1.8696 -10.044,-0.815 -3.608,0.9613 -4.592,1.5645 -7.595,4.6558 -1.487,1.5296 -4.072,3.8227 -5.747,5.0932 -2.868,2.1802 -6.539,6.7468 -6.539,8.1343 0,0.3469 2.32,1.7164 5.155,3.044 6.795,3.1819 12.597,7.0143 17.122,11.312 2.026,1.9253 3.805,3.3073 3.951,3.0691 0.573,-0.9265 -1.863,-4.5764 -4.502,-6.7497 -1.526,-1.2565 -5.466,-3.9411 -8.755,-5.9666 -3.29,-2.0256 -6.581,-4.3089 -7.314,-5.0737 -1.898,-1.9824 -1.372,-3.721 2.324,-7.6719 l 2.976,-3.1805 1.279,1.4879 c 0.703,0.8177 3.601,2.736 6.439,4.2615 17.206,9.2502 41.422,28.1185 57.747,44.9946 3.513,3.6333 6.471,6.5463 6.571,6.4752 0.1,-0.07 -0.557,-1.081 -1.459,-2.2415 z m -263.974,-2.6316 c 1.18,-0.8261 1.443,-1.6912 0.517,-1.6912 -0.687,0 -2.374,1.4516 -2.374,2.0409 0,0.6241 0.639,0.5043 1.857,-0.3497 z m -119.966,-1.6689 c 6.688,-2.0632 13.727,-4.8174 25.048,-9.8033 l 6.95,-3.0607 4.041,-4.5805 c 7.428,-8.4186 19.402,-18.6329 31.207,-26.6196 15.854,-10.7269 37.79,-21.7408 53.673,-26.9483 l 4.038,-1.3248 9.478,-10.1029 c 10.171,-10.8439 16.592,-16.6016 23.905,-21.4343 l 4.6,-3.0398 -2.88,-0.2981 c -3.432,-0.3539 -12.341,0.2591 -18.757,1.2928 -20.978,3.3755 -41.604,10.9289 -59.175,21.6698 -9.886,6.0433 -23.782,15.5109 -24.714,16.8371 -0.541,0.769 -2.548,3.4758 -4.462,6.0127 -1.913,2.5382 -6.063,8.4311 -9.221,13.0966 -3.16,4.6669 -7.675,11.0794 -10.035,14.2529 -5.72,7.6913 -8.634,12.6383 -10.182,17.2871 -0.705,2.1175 -1.7,4.2267 -2.211,4.6892 -0.511,0.4625 -4.023,2.0186 -7.804,3.4577 -9.019,3.4326 -22.849,10.5026 -20.625,10.5444 0.453,0 3.66,-0.8595 7.126,-1.928 z m 82.236,-4.4831 c 2.571,-2.2763 5.701,-5.0249 6.959,-6.106 1.715,-1.4739 2.364,-2.4268 2.598,-3.8087 0.269,-1.5784 0.182,-1.8431 -0.596,-1.8431 -0.985,0 -5.054,2.4073 -6.941,4.1055 -1.348,1.2134 -8.413,11.8804 -8.413,12.701 0,0.6227 -0.07,0.677 6.393,-5.0487 z m 50.448,0.7495 c 1.827,-1.3945 2.099,-2.1871 0.752,-2.1871 -0.84,0 -3.532,2.3613 -3.532,3.0996 0,0.6938 1.182,0.3065 2.78,-0.9125 z m 279.01,-7.715 c -12.641,-17.4891 -21.365,-27.7354 -31.702,-37.2336 -21.722,-19.9619 -44.142,-35.3725 -62.54,-42.9872 -3.861,-1.5993 -4.564,-1.7302 -9.244,-1.7261 -5.486,0 -10.225,0.4375 -10.225,0.9348 0,0.1714 2.377,2.2081 5.283,4.5262 13.032,10.3996 22.982,18.9602 24.021,20.6682 0.235,0.3873 1.645,1.2134 3.132,1.8361 3.799,1.5909 13.1,7.1216 22.496,13.3752 18.465,12.2901 43.837,32.9582 46.263,37.6892 0.877,1.7094 1.182,1.8654 6.992,3.5887 3.342,0.9905 6.372,1.8263 6.733,1.8556 0.371,0.028 -0.154,-1.0685 -1.209,-2.5271 z m -254.514,-6.7956 c 5.135,-2.6511 11.107,-5.5195 13.269,-6.3735 2.162,-0.8539 4.104,-1.7135 4.315,-1.9099 0.21,-0.1964 -0.1,-0.9724 -0.693,-1.7247 -0.986,-1.2538 -1.292,-1.3485 -3.696,-1.1493 -3.503,0.2912 -8.928,3.0244 -18.196,9.1722 -6.675,4.4259 -11.955,8.7961 -11.955,9.8925 0,0.5642 5.665,-2.0771 16.956,-7.9073 z m 182.744,4.9525 c -0.907,-1.5366 -1.825,-1.8793 -2.428,-0.9041 -0.399,0.645 1.487,2.378 2.588,2.378 0.585,0 0.556,-0.2619 -0.16,-1.4739 z m -288.654,-8.3447 c 15.46,-13.2485 32.049,-24.346 45.271,-30.2806 12.709,-5.7034 28.235,-10.0276 32.249,-8.98 7.794,2.0353 18.993,6.3581 33.752,13.0297 12.906,5.8344 16.283,7.5967 20.899,10.9095 3.458,2.4797 3.701,2.5758 4.34,1.7205 0.613,-0.822 0.407,-1.1563 -2.184,-3.533 -4.105,-3.7669 -9.256,-7.0282 -21.478,-13.6009 -17.027,-9.1541 -27.369,-13.339 -34.282,-13.8712 -11.359,-0.8748 -43.465,12.9936 -61.976,26.77 -7.558,5.6254 -14.288,12.2817 -20.758,20.5289 -2.082,2.6552 -2.042,2.6288 4.167,-2.6929 z m 53.663,-1.7804 c 1.977,-0.7035 8.347,-3.7893 14.159,-6.8569 5.811,-3.069 12.7,-6.588 15.306,-7.8209 4.564,-2.1579 11.127,-4.1933 13.523,-4.1933 1.63,0 1.523,-1.9489 -0.202,-3.6792 -1.285,-1.2886 -1.518,-1.3415 -4.792,-1.0796 -3.832,0.3079 -10.149,2.3111 -14.973,4.7491 -8.619,4.3562 -21.597,13.7918 -26.262,19.0953 -1.177,1.3374 -1.106,1.3332 3.241,-0.2145 z m -90.768,-2.8865 c 1.621,-1.3583 6.614,-5.8971 11.094,-10.0875 4.479,-4.1891 11.005,-10.1767 14.499,-13.3056 6.067,-5.4304 11.008,-10.954 10.37,-11.5907 -0.475,-0.475 -7.478,3.7363 -10.882,6.5421 -2.085,1.7204 -4.022,3.9884 -5.891,6.8958 -2.182,3.3951 -5.089,6.6103 -13.444,14.8617 -10.566,10.4358 -11.441,11.4542 -5.746,6.6842 z m 269.906,-9.8326 c 3.65,-1.8278 7.668,-5.0556 17.106,-13.7542 8.587,-7.9128 12.825,-11.078 19.781,-14.7739 1.42,-0.7537 2.58,-1.531 2.58,-1.7274 0,-0.1965 -0.592,-0.744 -1.315,-1.219 -1.936,-1.2677 -12.034,-9.8827 -21.292,-18.1648 -9.556,-8.5481 -9.781,-8.6693 -26.047,-14.0327 -25.978,-8.5663 -37.443,-10.2868 -68.849,-10.3299 -12.882,-0.014 -17.091,0.3385 -23.499,1.9935 -10.499,2.7096 -23.078,9.5804 -34.939,19.087 -4.942,3.9592 -17.201,15.6432 -17.201,16.3927 0,0.2424 0.717,0.3107 1.597,0.1491 1.196,-0.2188 2.769,0.188 6.266,1.6201 9.547,3.9091 13.895,6.0489 44.947,22.1143 l 15.706,8.1246 27.655,0.3873 c 33.762,0.4722 38.839,0.9445 49.054,4.5554 1.893,0.6687 3.797,1.2329 4.235,1.2524 0.436,0.014 2.333,-0.7341 4.215,-1.6745 z m -11.398,-6.0628 c -7.111,-2.4797 -7.402,-3.186 -0.647,-1.5673 7.448,1.7846 8.795,1.4391 15.39,-3.955 2.433,-1.9893 6.856,-5.3676 9.83,-7.5061 l 5.405,-3.8895 -5.652,5.3802 c -12.213,11.6282 -14.027,12.9266 -18.04,12.9155 -1.296,0 -4.124,-0.6227 -6.286,-1.3778 z m -115.642,-31.044 c -1.307,-0.8596 -3.371,-1.6063 -5.407,-1.9574 -6.394,-1.1047 -7.009,-2.7555 -2.744,-7.3612 2.252,-2.4337 8.526,-7.683 11.986,-10.0303 0.406,-0.2759 -1.608,1.9183 -4.475,4.8744 -5.431,5.6045 -7.32,7.977 -7.32,9.2001 0,0.6952 1.295,1.3834 3.931,2.0911 1.971,0.528 5.344,2.6316 5.907,3.6834 0.631,1.1799 0.707,1.1994 -1.878,-0.5001 z m -82.73,-9.6041 c 0.513,-0.5127 -1.024,-0.1784 -3.59,0.7829 -1.492,0.5572 -2.842,1.2245 -3.002,1.4823 -0.268,0.4332 6.072,-1.747 6.592,-2.2652 z m 101.636,-28.2244 c 7.58,-2.4324 22.143,-6.0099 27.117,-6.6619 7.86,-1.0309 -5.33,-2.1105 -15.404,-1.2621 -10.876,0.9166 -21.306,2.3376 -34.672,4.7226 -12.979,2.3154 -14.871,2.7012 -14.599,2.9715 0.26,0.2619 23.6,2.4031 28.313,2.5982 0.906,0.042 5.067,-1.0282 9.245,-2.3683 z" id="path74" /></g></svg>